<svg width="121" height="90" viewBox="0 0 121 183" fill="none" xmlns="http://www.w3.org/2000/svg">
<path d="M107 87.5141C107 87.7665 106.039 87.8927 104.116 87.8927C102.193 87.8927 100.294 88.3501 98.4185 89.2649C96.5428 90.1481 95.6049 91.9462 95.6049 94.659V153.19C95.6049 160.225 92.6272 166.77 86.6717 172.827C82.592 177.022 77.4807 179.972 71.3376 181.675C68.1958 182.558 64.9601 183 61.6307 183C58.2544 183 54.9719 182.495 51.7831 181.486C48.5944 180.476 47 179.341 47 178.079C47 176.817 47.7503 175.76 49.2509 174.909C50.7515 174.089 52.2989 173.679 53.8933 173.679C55.4877 173.679 56.8007 173.789 57.8324 174.01C58.864 174.231 59.7784 174.499 60.5756 174.814C61.3259 175.161 62.0059 175.524 62.6155 175.902C63.1782 176.313 63.9754 176.786 65.007 177.322C66.0856 177.89 67.5393 178.174 69.3681 178.174C72.9789 178.174 75.7222 177.148 77.5979 175.098C79.5205 173.079 80.7163 170.682 81.1852 167.906C81.6542 165.161 81.8886 161.676 81.8886 157.449V93.5707C81.8886 90.3847 79.2392 88.5551 73.9402 88.082C72.2521 87.9558 70.3529 87.8927 68.2427 87.8927C67.8675 87.8927 67.68 87.7665 67.68 87.5141V86.3785C67.68 86.1262 67.8675 86 68.2427 86H106.437C106.812 86 107 86.1262 107 86.3785V87.5141Z" fill="#fff"/>
<path d="M12.928 128.112C4.56533 128.112 0.383999 125.211 0.383999 119.408C0.383999 118.469 0.511999 117.445 0.768 116.336C2.38933 108.229 10.1973 101.488 24.192 96.112C28.6293 94.4053 33.4933 92.912 38.784 91.632C44.0747 90.2667 49.8347 89.1147 56.064 88.176C57.7707 85.1893 59.648 81.6053 61.696 77.424C63.8293 73.1573 66.0907 68.336 68.48 62.96C71.2107 56.9013 73.5147 51.9093 75.392 47.984C77.3547 44.0587 78.7627 41.2 79.616 39.408C81.408 35.9093 83.1147 32.8373 84.736 30.192C86.4427 27.5467 88.1067 25.2853 89.728 23.408C93.6533 18.7147 98.1333 15.472 103.168 13.68C101.035 13.3387 98.7733 13.1253 96.384 13.04C94.08 12.8693 91.6053 12.784 88.96 12.784C73.344 12.784 62.2507 14.704 55.68 18.544C51.2427 21.1893 47.872 23.9627 45.568 26.864C43.0933 30.0213 41.856 32.7947 41.856 35.184C41.856 38.1707 43.648 40.0053 47.232 40.688C48.4267 40.944 49.5787 41.072 50.688 41.072C54.9547 41.072 59.264 40.0053 63.616 37.872C67.968 35.9093 71.5947 33.4773 74.496 30.576C74.6667 30.4053 74.8373 30.32 75.008 30.32C75.3493 30.32 75.5627 30.4907 75.648 30.832C75.7333 31.088 75.648 31.4293 75.392 31.856C74.0267 33.5627 72.3627 35.1413 70.4 36.592C68.4373 38.0427 66.176 39.3653 63.616 40.56C58.496 42.9493 53.5467 44.144 48.768 44.144C45.0133 44.144 41.7707 43.2907 39.04 41.584C35.7973 39.6213 34.176 36.8907 34.176 33.392C34.176 30.2347 35.4987 27.1627 38.144 24.176C46.08 15.0453 61.696 10.48 84.992 10.48C88.7467 10.48 92.3733 10.608 95.872 10.864C99.3707 11.12 102.784 11.5467 106.112 12.144C109.355 11.2053 112 10.736 114.048 10.736C118.229 10.736 120.32 11.8453 120.32 14.064C120.32 15.088 119.723 15.984 118.528 16.752C117.419 17.4347 116.053 17.776 114.432 17.776C113.493 17.776 112.341 17.52 110.976 17.008C109.696 16.496 108.16 15.6853 106.368 14.576C102.187 16.112 98.8587 18.7573 96.384 22.512C94.592 25.1573 92.3733 30.1067 89.728 37.36C87.168 44.4427 85.1627 49.9467 83.712 53.872C82.3467 57.7973 81.4933 60.144 81.152 60.912C79.1893 65.8613 77.2267 70.512 75.264 74.864C73.3013 79.1307 71.3387 83.056 69.376 86.64C72.8747 86.384 75.9467 86.256 78.592 86.256C79.7013 86.256 80.7253 86.2987 81.664 86.384C82.6027 86.384 83.4987 86.4267 84.352 86.512C85.376 86.5973 85.888 86.8533 85.888 87.28C85.888 87.9627 85.248 88.304 83.968 88.304C79.0187 88.2187 73.6853 88.4747 67.968 89.072C56.6187 108.955 43.0933 121.2 27.392 125.808C22.272 127.344 17.4507 128.112 12.928 128.112ZM12.8 125.04C16.64 125.04 20.9067 123.845 25.6 121.456C35.9253 116.165 45.5253 106.011 54.4 90.992C38.4427 93.8933 25.8987 97.9893 16.768 103.28C8.32 108.229 4.096 113.307 4.096 118.512C4.096 122.864 6.99733 125.04 12.8 125.04Z" fill="#fff"/>
</svg>
