<svg width="294" height="280" viewBox="0 0 294 280" fill="none" xmlns="http://www.w3.org/2000/svg">
<g clip-path="url(#clip0_38_536)">
<rect width="294" height="280" fill="#0E141C"/>
<path d="M95.928 185.112C87.5653 185.112 83.384 182.211 83.384 176.408C83.384 175.469 83.512 174.445 83.768 173.336C85.3893 165.229 93.1973 158.488 107.192 153.112C111.629 151.405 116.493 149.912 121.784 148.632C127.075 147.267 132.835 146.115 139.064 145.176C140.771 142.189 142.648 138.605 144.696 134.424C146.829 130.157 149.091 125.336 151.48 119.96C154.211 113.901 156.515 108.909 158.392 104.984C160.355 101.059 161.763 98.2 162.616 96.408C164.408 92.9093 166.115 89.8373 167.736 87.192C169.443 84.5467 171.107 82.2853 172.728 80.408C176.653 75.7147 181.133 72.472 186.168 70.68C184.035 70.3387 181.773 70.1253 179.384 70.04C177.08 69.8693 174.605 69.784 171.96 69.784C156.344 69.784 145.251 71.704 138.68 75.544C134.243 78.1893 130.872 80.9627 128.568 83.864C126.093 87.0213 124.856 89.7947 124.856 92.184C124.856 95.1707 126.648 97.0053 130.232 97.688C131.427 97.944 132.579 98.072 133.688 98.072C137.955 98.072 142.264 97.0053 146.616 94.872C150.968 92.9093 154.595 90.4773 157.496 87.576C157.667 87.4053 157.837 87.32 158.008 87.32C158.349 87.32 158.563 87.4907 158.648 87.832C158.733 88.088 158.648 88.4293 158.392 88.856C157.027 90.5627 155.363 92.1413 153.4 93.592C151.437 95.0427 149.176 96.3653 146.616 97.56C141.496 99.9493 136.547 101.144 131.768 101.144C128.013 101.144 124.771 100.291 122.04 98.584C118.797 96.6213 117.176 93.8907 117.176 90.392C117.176 87.2347 118.499 84.1627 121.144 81.176C129.08 72.0453 144.696 67.48 167.992 67.48C171.747 67.48 175.373 67.608 178.872 67.864C182.371 68.12 185.784 68.5467 189.112 69.144C192.355 68.2053 195 67.736 197.048 67.736C201.229 67.736 203.32 68.8453 203.32 71.064C203.32 72.088 202.723 72.984 201.528 73.752C200.419 74.4347 199.053 74.776 197.432 74.776C196.493 74.776 195.341 74.52 193.976 74.008C192.696 73.496 191.16 72.6853 189.368 71.576C185.187 73.112 181.859 75.7573 179.384 79.512C177.592 82.1573 175.373 87.1067 172.728 94.36C170.168 101.443 168.163 106.947 166.712 110.872C165.347 114.797 164.493 117.144 164.152 117.912C162.189 122.861 160.227 127.512 158.264 131.864C156.301 136.131 154.339 140.056 152.376 143.64C155.875 143.384 158.947 143.256 161.592 143.256C162.701 143.256 163.725 143.299 164.664 143.384C165.603 143.384 166.499 143.427 167.352 143.512C168.376 143.597 168.888 143.853 168.888 144.28C168.888 144.963 168.248 145.304 166.968 145.304C162.019 145.219 156.685 145.475 150.968 146.072C139.619 165.955 126.093 178.2 110.392 182.808C105.272 184.344 100.451 185.112 95.928 185.112ZM95.8 182.04C99.64 182.04 103.907 180.845 108.6 178.456C118.925 173.165 128.525 163.011 137.4 147.992C121.443 150.893 108.899 154.989 99.768 160.28C91.32 165.229 87.096 170.307 87.096 175.512C87.096 179.864 89.9973 182.04 95.8 182.04Z" fill="#EE96F9"/>
<path d="M266.916 157.284C261.477 221.703 203.534 269.59 137.38 264.106C71.2265 258.621 22.1199 201.86 27.5593 137.441C32.9987 73.0219 90.9415 25.1351 157.095 30.6194C223.249 36.1038 272.355 92.8653 266.916 157.284Z" stroke="#EE96F9" stroke-width="5"/>
<path d="M98.5181 243L147.5 260L197.021 243V294H98.5181V243Z" fill="#0E141C"/>
<ellipse cx="96.3767" cy="252.094" rx="8.56546" ry="7.95682" fill="#EE96F9"/>
<ellipse cx="197.021" cy="252.094" rx="8.56546" ry="7.95682" fill="#EE96F9"/>
<path d="M188 144.514C188 144.767 187.039 144.893 185.116 144.893C183.193 144.893 181.294 145.35 179.419 146.265C177.543 147.148 176.605 148.946 176.605 151.659V210.19C176.605 217.225 173.627 223.77 167.672 229.827C163.592 234.022 158.481 236.972 152.338 238.675C149.196 239.558 145.96 240 142.631 240C139.254 240 135.972 239.495 132.783 238.486C129.594 237.476 128 236.341 128 235.079C128 233.817 128.75 232.76 130.251 231.909C131.751 231.089 133.299 230.679 134.893 230.679C136.488 230.679 137.801 230.789 138.832 231.01C139.864 231.231 140.778 231.499 141.576 231.814C142.326 232.161 143.006 232.524 143.615 232.902C144.178 233.313 144.975 233.786 146.007 234.322C147.086 234.89 148.539 235.174 150.368 235.174C153.979 235.174 156.722 234.148 158.598 232.098C160.521 230.079 161.716 227.682 162.185 224.906C162.654 222.161 162.889 218.676 162.889 214.449V150.571C162.889 147.385 160.239 145.555 154.94 145.082C153.252 144.956 151.353 144.893 149.243 144.893C148.868 144.893 148.68 144.767 148.68 144.514V143.379C148.68 143.126 148.868 143 149.243 143H187.437C187.812 143 188 143.126 188 143.379V144.514Z" fill="#EE96F9"/>
</g>
<defs>
<clipPath id="clip0_38_536">
<rect width="294" height="280" fill="white"/>
</clipPath>
</defs>
</svg>
